<svg xmlns="http://www.w3.org/2000/svg" viewBox="0 0 400 300" width="400" height="300">
<!-- Library thumbnail for the barrier asset, drawn to match the rendered model thumbnails. -->
<g transform="translate(165 136)"><polygon points="0.0,-12.0 124.7,60.0 69.3,92.0 -55.4,20.0" fill="#8fa587" stroke="#7a9072"/><polygon points="-34.6,22.0 69.3,82.0 69.3,80.0 -34.6,20.0" fill="#565b5e"/><polygon points="103.9,62.0 69.3,82.0 69.3,80.0 103.9,60.0" fill="#63696c"/><polygon points="0.0,0.0 103.9,60.0 69.3,80.0 -34.6,20.0" fill="#6f7579"/><polygon points="-34.6,20.0 -1.7,39.0 -1.7,35.0 -34.6,16.0" fill="#a9a69f"/><polygon points="32.9,19.0 -1.7,39.0 -1.7,35.0 32.9,15.0" fill="#c3c0b7"/><polygon points="0.0,-4.0 32.9,15.0 -1.7,35.0 -34.6,16.0" fill="#d9d6cc"/><polygon points="-26.8,16.5 -2.6,30.5 -2.6,-13.5 -26.8,-27.5" fill="#bbbab4"/><polygon points="25.1,14.5 -2.6,30.5 -2.6,-13.5 25.1,-29.5" fill="#d8d7d0"/><polygon points="0.9,-43.5 25.1,-29.5 -2.6,-13.5 -26.8,-27.5" fill="#f1efe8"/><polygon points="21.6,-3.5 0.9,8.5 0.9,-7.5 21.6,-19.5" fill="#5b7584"/><polygon points="-35.5,-27.5 -2.6,-8.5 -2.6,-12.5 -35.5,-31.5" fill="#244683"/><polygon points="33.8,-29.5 -2.6,-8.5 -2.6,-12.5 33.8,-33.5" fill="#2a5197"/><polygon points="0.9,-52.5 33.8,-33.5 -2.6,-12.5 -35.5,-31.5" fill="#2f5aa8"/><polygon points="13.9,22.0 19.1,25.0 19.1,3.0 13.9,0.0" fill="#b0902e"/><polygon points="24.2,22.0 19.1,25.0 19.1,3.0 24.2,0.0" fill="#cba635"/><polygon points="19.1,-3.0 24.2,0.0 19.1,3.0 13.9,0.0" fill="#e2b93b"/><polygon points="16.5,6.5 24.7,11.2 24.7,8.2 16.5,3.5" fill="#a33a2e"/><polygon points="27.3,9.8 24.7,11.2 24.7,8.2 27.3,6.8" fill="#bd4335"/><polygon points="19.1,2.0 27.3,6.8 24.7,8.2 16.5,3.5" fill="#d24b3b"/><polygon points="24.7,11.2 32.9,16.0 32.9,13.0 24.7,8.2" fill="#bebebb"/><polygon points="35.5,14.5 32.9,16.0 32.9,13.0 35.5,11.5" fill="#dbdbd8"/><polygon points="27.3,6.8 35.5,11.5 32.9,13.0 24.7,8.2" fill="#f4f4f0"/><polygon points="32.9,16.0 41.1,20.8 41.1,17.8 32.9,13.0" fill="#a33a2e"/><polygon points="43.7,19.2 41.1,20.8 41.1,17.8 43.7,16.2" fill="#bd4335"/><polygon points="35.5,11.5 43.7,16.2 41.1,17.8 32.9,13.0" fill="#d24b3b"/><polygon points="41.1,20.8 49.4,25.5 49.4,22.5 41.1,17.8" fill="#bebebb"/><polygon points="52.0,24.0 49.4,25.5 49.4,22.5 52.0,21.0" fill="#dbdbd8"/><polygon points="43.7,16.2 52.0,21.0 49.4,22.5 41.1,17.8" fill="#f4f4f0"/><polygon points="49.4,25.5 57.6,30.2 57.6,27.2 49.4,22.5" fill="#a33a2e"/><polygon points="60.2,28.8 57.6,30.2 57.6,27.2 60.2,25.8" fill="#bd4335"/><polygon points="52.0,21.0 60.2,25.8 57.6,27.2 49.4,22.5" fill="#d24b3b"/><polygon points="57.6,30.2 65.8,35.0 65.8,32.0 57.6,27.2" fill="#bebebb"/><polygon points="68.4,33.5 65.8,35.0 65.8,32.0 68.4,30.5" fill="#dbdbd8"/><polygon points="60.2,25.8 68.4,30.5 65.8,32.0 57.6,27.2" fill="#f4f4f0"/><polygon points="65.8,35.0 74.0,39.8 74.0,36.8 65.8,32.0" fill="#a33a2e"/><polygon points="76.6,38.2 74.0,39.8 74.0,36.8 76.6,35.2" fill="#bd4335"/><polygon points="68.4,30.5 76.6,35.2 74.0,36.8 65.8,32.0" fill="#d24b3b"/><polygon points="74.0,39.8 82.3,44.5 82.3,41.5 74.0,36.8" fill="#bebebb"/><polygon points="84.9,43.0 82.3,44.5 82.3,41.5 84.9,40.0" fill="#dbdbd8"/><polygon points="76.6,35.2 84.9,40.0 82.3,41.5 74.0,36.8" fill="#f4f4f0"/><polygon points="81.4,67.0 83.1,68.0 83.1,44.0 81.4,43.0" fill="#6d7477"/><polygon points="84.9,67.0 83.1,68.0 83.1,44.0 84.9,43.0" fill="#7e8689"/><polygon points="83.1,42.0 84.9,43.0 83.1,44.0 81.4,43.0" fill="#8d9599"/></g></svg>
