<svg xmlns="http://www.w3.org/2000/svg" viewBox="0 0 400 300" width="400" height="300">
<!-- Library thumbnail for the gate asset, drawn to match the rendered model thumbnails. -->
<g transform="translate(131 137)"><polygon points="0.0,-12.0 194.0,100.0 138.6,132.0 -55.4,20.0" fill="#8fa587" stroke="#7a9072"/><polygon points="-34.6,22.0 138.6,122.0 138.6,120.0 -34.6,20.0" fill="#908a7f"/><polygon points="173.2,102.0 138.6,122.0 138.6,120.0 173.2,100.0" fill="#a6a092"/><polygon points="0.0,0.0 173.2,100.0 138.6,120.0 -34.6,20.0" fill="#b9b2a3"/><polygon points="0.9,19.2 139.4,99.2 137.7,100.2 -0.9,20.2" fill="#f2f2ee"/><polygon points="-25.1,14.5 -9.5,23.5 -9.5,-66.5 -25.1,-75.5" fill="#a8a398"/><polygon points="6.1,14.5 -9.5,23.5 -9.5,-66.5 6.1,-75.5" fill="#c2bdb0"/><polygon points="-9.5,-84.5 6.1,-75.5 -9.5,-66.5 -25.1,-75.5" fill="#d8d2c4"/><polygon points="-28.6,-75.5 -9.5,-64.5 -9.5,-68.5 -28.6,-79.5" fill="#6b6558"/><polygon points="9.5,-75.5 -9.5,-64.5 -9.5,-68.5 9.5,-79.5" fill="#7c7566"/><polygon points="-9.5,-90.5 9.5,-79.5 -9.5,-68.5 -28.6,-79.5" fill="#8a8272"/><polygon points="-6.9,-46.0 135.1,36.0 135.1,16.0 -6.9,-66.0" fill="#246135"/><polygon points="145.5,30.0 135.1,36.0 135.1,16.0 145.5,10.0" fill="#2a703d"/><polygon points="3.5,-72.0 145.5,10.0 135.1,16.0 -6.9,-66.0" fill="#2f7d44"/><polygon points="1.7,-46.0 126.4,26.0 126.4,16.0 1.7,-56.0" fill="white" fill-opacity=".8"/><polygon points="132.5,105.5 148.1,114.5 148.1,24.5 132.5,15.5" fill="#a8a398"/><polygon points="163.7,105.5 148.1,114.5 148.1,24.5 163.7,15.5" fill="#c2bdb0"/><polygon points="148.1,6.5 163.7,15.5 148.1,24.5 132.5,15.5" fill="#d8d2c4"/><polygon points="129.0,15.5 148.1,26.5 148.1,22.5 129.0,11.5" fill="#6b6558"/><polygon points="167.1,15.5 148.1,26.5 148.1,22.5 167.1,11.5" fill="#7c7566"/><polygon points="148.1,0.5 167.1,11.5 148.1,22.5 129.0,11.5" fill="#8a8272"/></g></svg>
